{"title":"Dirty.Grandpa.2016.HDRip.XVID.AC3.HQ.Hive-CM8","uid":14332911,"size":1544704000,"categoryP":"video","categoryS":"movies","magnet":"?xt=urn:btih:faea43cc6993a1d708887fadddcf437f0a65da76&amp;dn=Dirty.Grandpa.2016.HDRip.XVID.AC3.HQ.Hive-CM8&amp;tr=udp%3A%2F%2Ftracker.leechers-paradise.org%3A6969&amp;tr=udp%3A%2F%2Fzer0day.ch%3A1337&amp;tr=udp%3A%2F%2Fopen.demonii.com%3A1337&amp;tr=udp%3A%2F%2Ftracker.coppersurfer.tk%3A6969&amp;tr=udp%3A%2F%2Fexodus.desync.com%3A6969","seeders":9,"leechers":4,"uploader":".BONE.","files":1,"time":1460689460,"description":"http://i.imgur.com/bFQkOoJ.jpg\r\n\r\nDirty.Grandpa.2016.HDRip.XVID.AC3.HQ.Hive-CM8\r\n\r\nThx Hive\r\n\r\nCM8 Doing It Right The First Time\r\n\r\nSources:\r\n\r\nVideo: Russian Itunes 1080p\r\nAudio: Exclusive Direct Line\r\nthx\r\n\r\nNotes:\r\nwhat a HOT Release, first from me, enjoy folks\r\n\r\nEncode:\r\nWaited for the 1080p, fixed rgb,brightness,contrast and added sharpness.\r\n\r\nLine Audio was nice, lipsynced to my video.\r\n\r\ngot very nice and will do me till retail in a month\r\nenjoy\r\n\r\nVideo: 720x304 @bitrate 1800 2pass\r\nAudio: Line AC3 2.0 Stereo\r\nSample: yes included\r\n \nhttp://www.imdb.com/title/tt1860213/\r\n\r\nGeneral\r\nComplete name                  : Dirty.Grandpa.2016.HDRip.XVID.AC3.HQ.Hive-CM8.avi\r\nFormat                         : AVI\r\nFormat/Info                    : Audio Video Interleave\r\nFile size                      : 1.44 GiB\r\nDuration                       : 1h 40mn\r\nOverall bit rate               : 2 057 Kbps\r\nWriting application            : Nandub v1.0rc2\r\nWriting library                : Nandub build 1853/release\r\n\r\nVideo\r\nID                             : 0\r\nFormat                         : MPEG-4 Visual\r\nFormat profile                 : Advanced   \r\nFormat settings, BVOP          : 2\r\nFormat settings, QPel          : Yes\r\nFormat settings, GMC           : No warppoints\r\nFormat settings, Matrix        : Default (H.263)\r\nMuxing mode                    : Packed bitstream\r\nCodec ID                       : XVID\r\nCodec ID/Hint                  : XviD\r\nDuration                       : 1h 40mn\r\nBit rate                       : 1 791 Kbps\r\nWidth                          : 720 pixels\r\nHeight                         : 304 pixels\r\nDisplay aspect ratio           : 2.35:1\r\nFrame rate                     : 25.000 fps\r\nColor space                    : YUV\r\nChroma subsampling             : 4:2:0\r\nBit depth                      : 8 bits\r\nScan type                      : Progressive\r\nCompression mode               : Lossy\r\nBits/(Pixel*Frame)             : 0.327\r\nStream size                    : 1.25 GiB (87%)\r\nWriting library                : XviD 1.2.1 (UTC 2008-12-04)\r\n\r\nAudio\r\nID                             : 1\r\nFormat                         : AC-3\r\nFormat/Info                    : Audio Coding 3\r\nMode extension                 : CM (complete main)\r\nFormat settings, Endianness    : Big\r\nCodec ID                       : 2000\r\nDuration                       : 1h 40mn\r\nBit rate mode                  : Constant\r\nBit rate                       : 256 Kbps\r\nChannel(s)                     : 2 channels\r\nChannel positions              : Front: L R\r\nSampling rate                  : 48.0 KHz\r\nBit depth                      : 16 bits\r\nCompression mode               : Lossy\r\nDelay relative to video        : 70ms\r\nStream size                    : 183 MiB (12%)\r\nAlignment                      : Split accross interleaves\r\nInterleave, duration           : 40 ms (1.00 video frame)\r\nInterleave, preload duration   : 500 ms\r\n\r\nScreens\r\n \nhttp://i.imgur.com/ZbBpnsp.png \nhttp://i.imgur.com/AA0iXx9.png \nhttp://i.imgur.com/VrlrtyT.png \nhttp://i.imgur.com/OGzqfZU.png \nhttp://i.imgur.com/BVg6fX2.png \nhttp://i.imgur.com/43tM3R1.png \nhttp://i.imgur.com/UkbmmXm.png\r\n\r\nPlot\r\n\r\nRight before his wedding, an uptight guy is tricked into driving his grandfather, a lecherous former &gt;&gt;\r\nArmy Lieutenant-Colonel, to Florida for spring break.\r\n\r\nCast overview, first billed only:\r\n\r\nRobert De Niro                  ...  Dick Kelly\r\nZac Efron                    ...  Jason Kelly\r\nZoey Deutch                    ...  Shadia\r\nAubrey Plaza                    ...  Lenore\r\nJason Mantzoukas          ...  Tan Pam\r\nDermot Mulroney           ...  David Kelly\r\nJulianne Hough          ...  Meredith\r\nJeffrey Bowyer-Chapman  ...  Bradley\r\nBrandon Mychal Smith    ...  Tyrone\r\nJake Picking                  ...  Cody\r\nMichael Hudson          ...  Brah\r\nAdam Pally                  ...  Cousin Nick\r\nMo Collins                  ...  Officer Finch\r\nHenry Zebrowski         ...  Officer Reiter\r\nCatherine Dyer          ...  Brooke Kelly\r\n\r\nLOOKING FOR ANYTHING YOU WANT TO LOOK AND SOUND BETTER\r\n\r\nCOME FIND US WE DONT BITE","torrent":{"xt":"urn:btih:faea43cc6993a1d708887fadddcf437f0a65da76","amp;dn":"Dirty.Grandpa.2016.HDRip.XVID.AC3.HQ.Hive-CM8","amp;tr":["udp%3A%2F%2Ftracker.leechers-paradise.org%3A6969","udp%3A%2F%2Fzer0day.ch%3A1337","udp%3A%2F%2Fopen.demonii.com%3A1337","udp%3A%2F%2Ftracker.coppersurfer.tk%3A6969","udp%3A%2F%2Fexodus.desync.com%3A6969"],"infoHash":"faea43cc6993a1d708887fadddcf437f0a65da76","infoHashBuffer":{"type":"Buffer","data":[250,234,67,204,105,147,161,215,8,136,127,173,221,207,67,127,10,101,218,118]},"announce":[],"urlList":[]}}